<svg xmlns="http://www.w3.org/2000/svg" width="107.32" height="27" viewBox="0 0 107.32 27">
  <g id="Group_35" data-name="Group 35" transform="translate(-106 -36)">
    <path id="Path_16" data-name="Path 16" d="M1.8-21V0H9.09a11.313,11.313,0,0,0,5.565-1.335,9.251,9.251,0,0,0,3.72-3.72A11.157,11.157,0,0,0,19.68-10.5a11.157,11.157,0,0,0-1.305-5.445,9.251,9.251,0,0,0-3.72-3.72A11.313,11.313,0,0,0,9.09-21ZM9.09-3.75H6.3v-13.5H9.09a5.5,5.5,0,0,1,4.425,1.845,7.3,7.3,0,0,1,1.575,4.9A7.3,7.3,0,0,1,13.515-5.6,5.5,5.5,0,0,1,9.09-3.75Zm28.2.18h-.48a1.12,1.12,0,0,1-.75-.21,1.01,1.01,0,0,1-.24-.78V-9.99a5.044,5.044,0,0,0-1.785-4.17A7.863,7.863,0,0,0,28.98-15.6,8.661,8.661,0,0,0,23.97-14.3a4.756,4.756,0,0,0-2.1,3.675h4.08a2.028,2.028,0,0,1,.9-1.38,3.345,3.345,0,0,1,1.92-.51,3.3,3.3,0,0,1,2.1.615,2.008,2.008,0,0,1,.78,1.665v.75H28.59a8.8,8.8,0,0,0-5.265,1.335,4.431,4.431,0,0,0-1.815,3.8A3.941,3.941,0,0,0,23.085-1,6.738,6.738,0,0,0,27.24.18a5.983,5.983,0,0,0,2.97-.69,5.838,5.838,0,0,0,2.07-2.01Q32.22,0,35.13,0h2.16ZM31.65-6.66v.3a3.494,3.494,0,0,1-.99,2.535,3.559,3.559,0,0,1-2.61.945,2.637,2.637,0,0,1-1.665-.48,1.552,1.552,0,0,1-.615-1.29,1.718,1.718,0,0,1,.735-1.485A3.489,3.489,0,0,1,28.56-6.66Zm19.875-7.965A6.937,6.937,0,0,0,47.85-15.6a6.008,6.008,0,0,0-2.805.63,5.729,5.729,0,0,0-1.995,1.68l-.42-2.13H38.94V6h4.23V-1.95A5.593,5.593,0,0,0,47.82.18,7.015,7.015,0,0,0,51.51-.8,6.733,6.733,0,0,0,54.045-3.54a8.9,8.9,0,0,0,.915-4.14,9.082,9.082,0,0,0-.915-4.17A6.725,6.725,0,0,0,51.525-14.625Zm-1.9,10.11A3.435,3.435,0,0,1,46.86-3.27,3.365,3.365,0,0,1,44.13-4.5a4.911,4.911,0,0,1-1.02-3.24,4.8,4.8,0,0,1,1.02-3.195,3.383,3.383,0,0,1,2.73-1.215,3.471,3.471,0,0,1,2.76,1.215A4.714,4.714,0,0,1,50.67-7.74,4.831,4.831,0,0,1,49.62-4.515Zm20.265-10.11A6.937,6.937,0,0,0,66.21-15.6a6.008,6.008,0,0,0-2.8.63,5.729,5.729,0,0,0-1.995,1.68l-.42-2.13H57.3V6h4.23V-1.95A5.593,5.593,0,0,0,66.18.18,7.015,7.015,0,0,0,69.87-.8,6.733,6.733,0,0,0,72.4-3.54a8.9,8.9,0,0,0,.915-4.14,9.082,9.082,0,0,0-.915-4.17A6.725,6.725,0,0,0,69.885-14.625Zm-1.9,10.11A3.435,3.435,0,0,1,65.22-3.27,3.365,3.365,0,0,1,62.49-4.5a4.911,4.911,0,0,1-1.02-3.24,4.8,4.8,0,0,1,1.02-3.195,3.383,3.383,0,0,1,2.73-1.215,3.471,3.471,0,0,1,2.76,1.215A4.714,4.714,0,0,1,69.03-7.74,4.831,4.831,0,0,1,67.98-4.515Z" transform="translate(140 57)" fill="#222"/>
    <circle id="Ellipse_1" data-name="Ellipse 1" cx="6.5" cy="6.5" r="6.5" transform="translate(106 36)" fill="#2543bf"/>
    <circle id="Ellipse_2" data-name="Ellipse 2" cx="4.5" cy="4.5" r="4.5" transform="translate(118 48)" fill="#2543bf"/>
  </g>
</svg>
