<svg xmlns="http://www.w3.org/2000/svg" width="16" height="19" viewBox="0 0 16 19">
  <g id="Group_24" data-name="Group 24" transform="translate(0 -0.357)">
    <g id="Rectangle_18" data-name="Rectangle 18" transform="translate(2 0.357)" fill="#fff" stroke="#6d7d93" stroke-width="1.5">
      <path d="M3,0H9a3,3,0,0,1,3,3v9a0,0,0,0,1,0,0H0a0,0,0,0,1,0,0V3A3,3,0,0,1,3,0Z" stroke="none"/>
      <path d="M3,.75H9A2.25,2.25,0,0,1,11.25,3v7.5a.75.75,0,0,1-.75.75h-9a.75.75,0,0,1-.75-.75V3A2.25,2.25,0,0,1,3,.75Z" fill="none"/>
    </g>
    <g id="Rectangle_17" data-name="Rectangle 17" transform="translate(0 8.357)" fill="#fff" stroke="#6d7d93" stroke-width="1.5">
      <rect width="16" height="11" stroke="none"/>
      <rect x="0.75" y="0.75" width="14.5" height="9.5" fill="none"/>
    </g>
    <line id="Line_7" data-name="Line 7" y2="3.731" transform="translate(8.085 12.116)" fill="none" stroke="#6d7d93" stroke-width="1.5"/>
    <line id="Line_8" data-name="Line 8" x2="2.488" transform="translate(6.841 13.36)" fill="none" stroke="#6d7d93" stroke-width="1.5"/>
  </g>
</svg>
